HIERARCHY
ROOT Hips
{
    OFFSET 0.0 0.0 0.0
    CHANNELS 6 Xposition Yposition Zposition Zrotation Xrotation Yrotation
    JOINT LeftHipJoint
    {
        OFFSET 0.1 0.0 0.0
        CHANNELS 3 Zrotation Xrotation Yrotation
        JOINT LeftUpLeg
        {
            OFFSET 125.78185085947499 0.0 0.0
            CHANNELS 3 Zrotation Xrotation Yrotation
            JOINT LeftLeg
            {
                OFFSET 0.0 0.0 -415.91059737804875
                CHANNELS 3 Zrotation Xrotation Yrotation
                JOINT LeftFoot
                {
                    OFFSET 0.0 0.0 -404.8259208223787
                    CHANNELS 3 Zrotation Xrotation Yrotation
                    End Site
                    {
                        OFFSET 0.0 -0.1 0.0
                    }
                }
            }
        }
    }
    JOINT LowerBack
    {
        OFFSET 0.0 0.0 0.1
        CHANNELS 3 Zrotation Xrotation Yrotation
        JOINT Spine
        {
            OFFSET 0.0 0.0 221.01296023004375
            CHANNELS 3 Zrotation Xrotation Yrotation
            JOINT Spine1
            {
                OFFSET 0.0 0.0 252.64802491294432
                CHANNELS 3 Zrotation Xrotation Yrotation
                JOINT LeftShoulder
                {
                    OFFSET 0.1 0.0 0.0
                    CHANNELS 3 Zrotation Xrotation Yrotation
                    JOINT LeftArm
                    {
                        OFFSET 138.2418331892473 0.0 0.0
                        CHANNELS 3 Zrotation Xrotation Yrotation
                        JOINT LeftForeArm
                        {
                            OFFSET 264.7430648233118 0.0 0.0
                            CHANNELS 3 Zrotation Xrotation Yrotation
                            JOINT LeftHand
                            {
                                OFFSET 233.56678329505456 0.0 0.0
                                CHANNELS 3 Zrotation Xrotation Yrotation
                                End Site
                                {
                                    OFFSET 0.1 0.0 0.0
                                }
                            }
                        }
                    }
                }
                JOINT Neck
                {
                    OFFSET 0.0 0.0 0.1
                    CHANNELS 3 Zrotation Xrotation Yrotation
                    JOINT Neck1
                    {
                        OFFSET 0.0 0.0 104.119245320339
                        CHANNELS 3 Zrotation Xrotation Yrotation
                        End Site
                        {
                            OFFSET 0.0 0.0 115.72440882118278
                        }
                    }
                }
                JOINT RightShoulder
                {
                    OFFSET -0.1 0.0 0.0
                    CHANNELS 3 Zrotation Xrotation Yrotation
                    JOINT RightArm
                    {
                        OFFSET -138.2418331892473 0.0 0.0
                        CHANNELS 3 Zrotation Xrotation Yrotation
                        JOINT RightForeArm
                        {
                            OFFSET -264.7430648233118 0.0 0.0
                            CHANNELS 3 Zrotation Xrotation Yrotation
                            JOINT RightHand
                            {
                                OFFSET -233.56678329505456 0.0 0.0
                                CHANNELS 3 Zrotation Xrotation Yrotation
                                End Site
                                {
                                    OFFSET -0.1 0.0 0.0
                                }
                            }
                        }
                    }
                }
            }
        }
    }
    JOINT RightHipJoint
    {
        OFFSET -0.1 0.0 0.0
        CHANNELS 3 Zrotation Xrotation Yrotation
        JOINT RightUpLeg
        {
            OFFSET -125.78185085947499 0.0 0.0
            CHANNELS 3 Zrotation Xrotation Yrotation
            JOINT RightLeg
            {
                OFFSET 0.0 0.0 -415.91059737804875
                CHANNELS 3 Zrotation Xrotation Yrotation
                JOINT RightFoot
                {
                    OFFSET 0.0 0.0 -404.8259208223787
                    CHANNELS 3 Zrotation Xrotation Yrotation
                    End Site
                    {
                        OFFSET 0.0 -0.1 0.0
                    }
                }
            }
        }
    }
}
MOTION
Frames: 4
Frame Time: 0.03333333333333333
0.0 0.0 811.2673178351573 23.936998406477123 6.098675056210259 4.775634167227767 0.0 0.0 1.987846675914698e-16 -1.8124387772985602 -20.779025752996166 -1.588852506685802 1.5714306773806395 24.052205706332607 -0.7342528381260963 0.0 0.0 1.987846675914698e-16 0.0 0.0 1.987846675914698e-16 0.4713429300006435 5.624809584246941 0.5912895584842843 1.3599940900776666 -1.604320293436327e-15 -1.173750741432564e-15 0.0 0.0 0.0 -25.964311655661845 22.592125607936243 79.24073495109647 -54.881676285722456 -4.491773498811027e-15 -8.603984605806224e-15 0.0 0.0 0.0 0.0 0.0 0.0 -2.1583512775885945 -1.3343841390162519 -2.6054346475398784 0.0 0.0 0.0 25.288736160846355 19.950102514885366 -83.97315526131226 49.90541282056289 -9.392464786541264e-15 -2.018569001151007e-14 0.0 0.0 0.0 0.0 0.0 1.987846675914698e-16 -1.697099670586418 -19.483118560372485 -6.309782571118738 -0.6355435850426121 27.10290249804176 -0.07179925651387924 0.0 0.0 3.975693351829396e-16
0.0 0.0 811.2673178351573 23.9203976426831 6.06805798207503 4.766354701243966 0.0 0.0 1.987846675914698e-16 -1.818301726813094 -20.81195877302678 -1.5632455228324331 1.5869053547854501 24.053777468555268 -0.741007540159029 0.0 0.0 3.975693351829396e-16 0.0 0.0 1.987846675914698e-16 0.47712825839166806 5.68504696747513 0.5950249178090893 1.341498378299676 -4.0685039460650274e-16 -7.90430033461252e-16 0.0 0.0 -3.975693351829396e-16 -25.570721282435414 22.496428358745646 79.15155977731206 -55.298355785706356 -6.034174980556507e-16 -5.701986810649741e-15 0.0 0.0 -2.3854160110976376e-15 0.0 0.0 -3.975693351829396e-16 -2.109555033927798 -1.3869571275074095 -2.529798608179167 0.0 0.0 -3.975693351829396e-16 24.804701499996824 19.89131522979701 -83.84585761393505 50.0099278606711 -1.2680565696690718e-14 -4.614104364222977e-15 6.3611093629270335e-15 -8.827812596100317e-32 -1.5902773407317584e-15 0.0 0.0 1.987846675914698e-16 -1.7016610200841649 -19.505207342190033 -6.317493425234044 -0.6388367382715646 27.23105308737579 -0.0573690423543406 0.0 0.0 3.975693351829396e-16
0.0 0.0 811.2673178351573 23.925248142908295 5.95648384416893 4.7180721735649644 0.0 0.0 3.975693351829396e-16 -1.816225002941347 -20.75801119762782 -1.4583239467276998 1.6359639331604885 24.040653490684043 -0.7673328103957257 0.0 0.0 -1.987846675914698e-16 0.0 0.0 3.975693351829396e-16 0.48610656912066164 5.781634844500027 0.6341224219029616 1.3405020497244986 2.1957831195181525e-15 7.69505444785116e-16 0.0 0.0 0.0 -25.38853280494991 22.500989209386265 79.13618670624301 -55.471534084467706 7.40106589346899e-16 -1.4075596814523263e-15 0.0 0.0 -2.782985346280577e-15 0.0 0.0 0.0 -2.2390608542940225 -1.439243610434917 -2.4530793179098316 0.0 0.0 0.0 24.4560834814151 19.95727734204536 -83.7685819665574 50.22325051296304 -1.0169975274345966e-14 8.279032570864973e-15 -6.3611093629270335e-15 -8.827812596100317e-32 1.5902773407317584e-15 0.0 0.0 3.975693351829396e-16 -1.6961127518164374 -19.416367807924093 -6.227300488695039 -0.5935597212692785 27.392658458670123 -0.12896245093574546 -3.1805546814635168e-15 1.1034765745125397e-32 -3.975693351829396e-16
0.0 0.0 811.2673178351573 23.980463665099865 5.933236166719561 4.681222005012199 0.0 0.0 0.0 -1.8353763867867687 -20.838132097904705 -1.4028718993519842 1.6802497223010313 24.089954918566296 -0.7542116316053713 0.0 0.0 1.987846675914698e-16 0.0 0.0 0.0 0.49388809000425954 5.83723214669777 0.6750237984012724 1.3724331672465415 -4.372949035394827e-15 5.237617257701646e-17 0.0 0.0 3.9756933518293955e-16 -25.274725405398875 22.435320139087448 79.09250838661663 -55.47539950398945 9.99828985208344e-15 -1.9293685163713853e-15 0.0 0.0 1.1927080055488188e-15 0.0 0.0 3.9756933518293955e-16 -2.376098236492257 -1.4442832795736387 -2.385855795722369 0.0 0.0 3.9756933518293955e-16 24.43683759552806 19.787652276264588 -83.66235725100508 50.341617598536416 -2.1863589458215494e-15 -2.7086575725438776e-14 -6.3611093629270335e-15 -8.827812596100317e-32 1.5902773407317584e-15 0.0 0.0 0.0 -1.7091019121291957 -19.44167193054661 -6.173638974232598 -0.5531562562821642 27.573240013033622 -0.20471170131528388 0.0 0.0 0.0
